<svg xmlns="http://www.w3.org/2000/svg" viewBox="0 0 32 32">
  <!-- Background circle -->
  <circle cx="16" cy="16" r="16" fill="#FF385C"/>
  
  <!-- Airbnb logo symbol -->
  <path d="M16 7.5c-1.2 0-2.1.9-2.1 2.1 0 1.2.9 2.1 2.1 2.1 1.2 0 2.1-.9 2.1-2.1 0-1.2-.9-2.1-2.1-2.1zm-5.3 8.5c0-.6 0-1.2.3-1.8l.3-.6c.9-1.8 1.8-3.6 2.7-5.1.3-.6.9-1.2 1.8-1.2s1.5.6 1.8 1.2c.9 1.5 1.8 3.3 2.7 5.1l.3.6c.3.6.3 1.2.3 1.8 0 2.7-2.1 4.8-4.8 4.8-2.9 0-5-2.1-5-4.8zm12.1-.3c0 .9-.3 2.1-.6 3-1.2 3.3-3.6 6.3-6.3 8.5-.6.6-1.2.9-1.8.9s-1.2-.3-1.8-.9c-2.7-2.1-5.1-5.1-6.3-8.5-.3-.9-.6-2.1-.6-3 0-4.2 3.3-7.5 7.5-7.5s7.5 3.3 7.5 7.5h.4z" 
        fill="white"/>
</svg>